{"asset":{"version":"2.0","generator":"Blockbench 4.5.1 glTF exporter"},"scenes":[{"nodes":[4],"name":"blockbench_export"}],"scene":0,"nodes":[{"name":"Body","mesh":0},{"name":"Mattress","mesh":1},{"rotation":[-0.19509032201612825,0,0,0.9807852804032304],"translation":[-0.1875,0.4375,0.75],"name":"Poduska","mesh":2},{"translation":[0,0.4500000000000002,-0.1875],"name":"Blanket","mesh":3},{"children":[0,1,2,3]}],"bufferViews":[{"buffer":0,"byteOffset":0,"byteLength":1392,"target":34962,"byteStride":12},{"buffer":0,"byteOffset":1392,"byteLength":1392,"target":34962,"byteStride":12},{"buffer":0,"byteOffset":2784,"byteLength":928,"target":34962,"byteStride":8},{"buffer":0,"byteOffset":3712,"byteLength":336,"target":34963},{"buffer":0,"byteOffset":4048,"byteLength":528,"target":34962,"byteStride":12},{"buffer":0,"byteOffset":4576,"byteLength":528,"target":34962,"byteStride":12},{"buffer":0,"byteOffset":5104,"byteLength":352,"target":34962,"byteStride":8},{"buffer":0,"byteOffset":5456,"byteLength":120,"target":34963},{"buffer":0,"byteOffset":5576,"byteLength":288,"target":34962,"byteStride":12},{"buffer":0,"byteOffset":5864,"byteLength":288,"target":34962,"byteStride":12},{"buffer":0,"byteOffset":6152,"byteLength":192,"target":34962,"byteStride":8},{"buffer":0,"byteOffset":6344,"byteLength":72,"target":34963},{"buffer":0,"byteOffset":6416,"byteLength":144,"target":34962,"byteStride":12},{"buffer":0,"byteOffset":6560,"byteLength":144,"target":34962,"byteStride":12},{"buffer":0,"byteOffset":6704,"byteLength":96,"target":34962,"byteStride":8},{"buffer":0,"byteOffset":6800,"byteLength":36,"target":34963}],"buffers":[{"byteLength":6836,"uri":"data:application/octet-stream;base64,"}],"accessors":[{"bufferView":0,"componentType":5126,"count":116,"max":[0.5,0.625,1],"min":[-0.5,0,-1],"type":"VEC3"},{"bufferView":1,"componentType":5126,"count":116,"max":[1,1,1],"min":[-1,0,-1],"type":"VEC3"},{"bufferView":2,"componentType":5126,"count":116,"max":[0.75,1],"min":[0,0.484375],"type":"VEC2"},{"bufferView":3,"componentType":5123,"count":168,"max":[115],"min":[0],"type":"SCALAR"},{"bufferView":4,"componentType":5126,"count":44,"max":[0.5,0.4375,0.9375],"min":[-0.5,0.3125,-1],"type":"VEC3"},{"bufferView":5,"componentType":5126,"count":44,"max":[0.4472135901451111,1,1],"min":[-0.4472135901451111,-1,-1],"type":"VEC3"},{"bufferView":6,"componentType":5126,"count":44,"max":[0.921875,0.484375],"min":[0,0],"type":"VEC2"},{"bufferView":7,"componentType":5123,"count":60,"max":[43],"min":[0],"type":"SCALAR"},{"bufferView":8,"componentType":5126,"count":24,"max":[0.1875,0.25,0.1875],"min":[-0.1875,0,-0.1875],"type":"VEC3"},{"bufferView":9,"componentType":5126,"count":24,"max":[1,1,1],"min":[-1,-1,-1],"type":"VEC3"},{"bufferView":10,"componentType":5126,"count":24,"max":[0.28125,0.234375],"min":[0.1875,0.09375],"type":"VEC2"},{"bufferView":11,"componentType":5123,"count":36,"max":[23],"min":[0],"type":"SCALAR"},{"bufferView":12,"componentType":5126,"count":12,"max":[0.5,0.0625,0.625],"min":[-0.5,-0.00048263269127346575,-0.8047478199005127],"type":"VEC3"},{"bufferView":13,"componentType":5126,"count":12,"max":[0.08300524204969406,1,0],"min":[0,0.9960628747940063,-0.0311269648373127],"type":"VEC3"},{"bufferView":14,"componentType":5126,"count":12,"max":[0.75,0.640625],"min":[0.4375,0.234375],"type":"VEC2"},{"bufferView":15,"componentType":5123,"count":18,"max":[11],"min":[0],"type":"SCALAR"}],"materials":[{"pbrMetallicRoughness":{"metallicFactor":0,"roughnessFactor":1,"baseColorTexture":{"index":0}},"alphaMode":"MASK","alphaCutoff":0.05,"doubleSided":true}],"textures":[{"sampler":0,"source":0,"name":"texture"}],"samplers":[{"magFilter":9728,"minFilter":9728,"wrapS":33071,"wrapT":33071}],"images":[{"mimeType":"image/png","uri":"data:image/png;base64,"}],"meshes":[{"primitives":[{"mode":4,"attributes":{"POSITION":0,"NORMAL":1,"TEXCOORD_0":2},"indices":3,"material":0}]},{"primitives":[{"mode":4,"attributes":{"POSITION":4,"NORMAL":5,"TEXCOORD_0":6},"indices":7,"material":0}]},{"primitives":[{"mode":4,"attributes":{"POSITION":8,"NORMAL":9,"TEXCOORD_0":10},"indices":11,"material":0}]},{"primitives":[{"mode":4,"attributes":{"POSITION":12,"NORMAL":13,"TEXCOORD_0":14},"indices":15,"material":0}]}]}